<?xml version="1.0" encoding="utf-8"?>
<!-- Generator: Adobe Illustrator 19.1.0, SVG Export Plug-In . SVG Version: 6.00 Build 0)  -->
<svg version="1.0" id="Layer_2" xmlns="http://www.w3.org/2000/svg" xmlns:xlink="http://www.w3.org/1999/xlink" x="0px" y="0px"
	 viewBox="-889.5 264 120 33.3" style="enable-background:new -889.5 264 120 33.3;" xml:space="preserve">
<style type="text/css">
	.st0{fill:#130C0E;}
	.st1{fill:#D4C029;}
</style>
<g>
	<polygon class="st0" points="-887,264.9 -881.7,264.9 -878.5,273.4 -875.2,264.9 -870,264.9 -870,279.2 -873.9,279.2 -873.9,270.9 
		-877.1,279.2 -880.2,279.2 -883.3,271 -883.3,279.2 -887,279.2 	"/>
	<path class="st1" d="M-887,282h7.2c5,0,6.2,2.1,6.2,5.1c0,2.9-1.1,5.4-6.4,5.4h-3.1v3.9h-3.9V282z M-879.8,289.1
		c1.6,0,2.2-0.5,2.2-1.8c0-1.4-0.5-1.9-2.2-1.9h-3.2v3.7H-879.8z"/>
	<path class="st1" d="M-869.1,281.9h4.1l5.8,14.5h-4.2l-0.7-1.9h-6.1l-0.7,1.9h-3.9L-869.1,281.9z M-865.3,291.2l-1.8-4.6l-1.8,4.6
		H-865.3z"/>
	<path class="st1" d="M-851.4,292h-2.6v4.3h-3.9V282h7.3c5.1,0,6,2.2,6,4.9c0,1.8-0.4,3.7-2.8,4.6l2.6,4.8h-4.3L-851.4,292z
		 M-850.8,288.7c1.6,0,2.1-0.3,2.1-1.6c0-1.4-0.5-1.7-2.1-1.7h-3.2v3.3H-850.8z"/>
	<polygon class="st1" points="-839.1,285.6 -843.8,285.6 -843.8,282 -830.3,282 -830.3,285.6 -835,285.6 -835,296.3 -839.1,296.3 	
		"/>
	<polygon class="st1" points="-828.7,282 -824.4,282 -818.8,289.6 -818.8,282 -814.9,282 -814.9,296.3 -818.6,296.3 -824.8,287.9 
		-824.8,296.3 -828.7,296.3 	"/>
	<polygon class="st1" points="-813,282 -801.6,282 -801.6,285.6 -809,285.6 -809,287.3 -801.7,287.3 -801.7,290.8 -809,290.8 
		-809,292.9 -801.5,292.9 -801.5,296.3 -813,296.3 	"/>
	<path class="st1" d="M-793.2,292h-2.6v4.3h-3.9V282h7.3c5.1,0,6,2.2,6,4.9c0,1.8-0.4,3.7-2.8,4.6l2.6,4.8h-4.3L-793.2,292z
		 M-792.6,288.7c1.6,0,2.1-0.3,2.1-1.6c0-1.4-0.5-1.7-2.1-1.7h-3.2v3.3H-792.6z"/>
	<path class="st1" d="M-786,294.5l2-2.9c1.4,1,3.3,1.6,5.2,1.6c2.7,0,2.9-0.4,2.9-1.2c0-0.7-0.9-0.9-3-1.1c-4.2-0.5-6.1-1.3-6.1-4.6
		c0-3.4,2-4.6,6.4-4.6c3.3,0,5.2,0.8,6.2,1.5l-2.2,3.1c-0.8-0.6-2.6-1.1-4.1-1.1c-2.1,0-2.3,0.3-2.3,1c0,0.8,1,0.9,3.2,1.2
		c3.6,0.5,5.9,1.1,5.9,4.4c0,2.9-1.5,4.7-6.7,4.7C-781.9,296.5-784.4,295.7-786,294.5"/>
	<path class="st0" d="M-868.5,272.1c0-5.2,2.9-7.4,7.8-7.4c2.9,0,4.6,0.8,6,2.2l-2.8,2.8c-0.8-0.8-1.6-1.3-3.2-1.3
		c-2.7,0-3.7,1.3-3.7,3.8c0,2.3,0.7,3.8,3.7,3.8c1.7,0,2.5-0.6,3.4-1.4l2.6,2.6c-1.2,1.3-2.8,2.4-6.3,2.4
		C-866.6,279.5-868.5,276.7-868.5,272.1"/>
	<path class="st0" d="M-853.2,264.9h5.4c5.8,0,8.3,1.4,8.3,7.2c0,5.7-2.5,7.2-8.3,7.2h-5.4V264.9z M-847.6,275.8c3.6,0,4-1,4-3.7
		c0-2.7-0.3-3.6-4.2-3.6h-1.4v7.3H-847.6z"/>
</g>
</svg>
